<mxfile host="Electron" agent="Mozilla/5.0 (Windows NT 10.0; Win64; x64) AppleWebKit/537.36 (KHTML, like Gecko) draw.io/26.0.9 Chrome/128.0.6613.186 Electron/32.2.5 Safari/537.36" version="26.0.9">
  <diagram name="Page-1" id="c4acf3e9-155e-7222-9cf6-157b1a14988f">
    <mxGraphModel dx="1032" dy="1180" grid="1" gridSize="10" guides="1" tooltips="1" connect="1" arrows="1" fold="1" page="1" pageScale="1" pageWidth="850" pageHeight="1100" background="none" math="0" shadow="0">
      <root>
        <mxCell id="0" />
        <mxCell id="1" parent="0" />
        <mxCell id="4cYH0kskli7POFGjwZM7-1" value="System zarządzania pracownikami" style="shape=umlFrame;whiteSpace=wrap;html=1;rounded=0;shadow=0;comic=0;labelBackgroundColor=none;strokeWidth=1;fontFamily=Verdana;fontSize=10;align=center;width=170;height=30;" parent="1" vertex="1">
          <mxGeometry x="70" y="50" width="710" height="900" as="geometry" />
        </mxCell>
        <mxCell id="4cYH0kskli7POFGjwZM7-2" value="Administator" style="shape=umlActor;verticalLabelPosition=bottom;verticalAlign=top;html=1;fillColor=light-dark(#7ACFF5,var(--ge-dark-color, #121212));" parent="1" vertex="1">
          <mxGeometry x="800" y="400" width="30" height="60" as="geometry" />
        </mxCell>
        <mxCell id="4cYH0kskli7POFGjwZM7-5" value="" style="endArrow=block;dashed=1;endFill=0;endSize=12;html=1;rounded=0;exitX=0.5;exitY=0;exitDx=0;exitDy=0;" parent="1" edge="1">
          <mxGeometry width="160" relative="1" as="geometry">
            <mxPoint x="340" y="270" as="sourcePoint" />
            <mxPoint x="340" y="270" as="targetPoint" />
          </mxGeometry>
        </mxCell>
        <mxCell id="4cYH0kskli7POFGjwZM7-33" value="HR" style="shape=umlActor;verticalLabelPosition=bottom;verticalAlign=top;html=1;fillColor=light-dark(#7ACFF5,var(--ge-dark-color, #121212));" parent="1" vertex="1">
          <mxGeometry x="10" y="400" width="30" height="60" as="geometry" />
        </mxCell>
        <mxCell id="4cYH0kskli7POFGjwZM7-50" value="Zatwierdź wniosek o dodanie nowego pracownika" style="ellipse;whiteSpace=wrap;html=1;fillColor=light-dark(#7ACFF5,var(--ge-dark-color, #121212));" parent="1" vertex="1">
          <mxGeometry x="530" y="310" width="125" height="80" as="geometry" />
        </mxCell>
        <mxCell id="tCxOhf9ivpcR8k-8vdyb-1" value="Zatwierdź wniosek o edycję danych pracownika" style="ellipse;whiteSpace=wrap;html=1;fillColor=light-dark(#7ACFF5,var(--ge-dark-color, #121212));" parent="1" vertex="1">
          <mxGeometry x="532.5" y="700" width="125" height="80" as="geometry" />
        </mxCell>
        <mxCell id="tCxOhf9ivpcR8k-8vdyb-2" value="Stwórz hasło dla pracownika" style="ellipse;whiteSpace=wrap;html=1;fillColor=light-dark(#7ACFF5,var(--ge-dark-color, #121212));" parent="1" vertex="1">
          <mxGeometry x="640" y="70" width="125" height="80" as="geometry" />
        </mxCell>
        <mxCell id="tCxOhf9ivpcR8k-8vdyb-3" value="Stwórz login pracownika" style="ellipse;whiteSpace=wrap;html=1;fillColor=light-dark(#7ACFF5,var(--ge-dark-color, #121212));" parent="1" vertex="1">
          <mxGeometry x="407.5" y="70" width="125" height="80" as="geometry" />
        </mxCell>
        <mxCell id="tCxOhf9ivpcR8k-8vdyb-4" value="Podaj stanowisko i dział pracownika" style="ellipse;whiteSpace=wrap;html=1;fillColor=light-dark(#7ACFF5,var(--ge-dark-color, #121212));" parent="1" vertex="1">
          <mxGeometry x="75" y="170" width="125" height="80" as="geometry" />
        </mxCell>
        <mxCell id="tCxOhf9ivpcR8k-8vdyb-5" value="Podaj dane kontaktowe pracownika" style="ellipse;whiteSpace=wrap;html=1;fillColor=light-dark(#7ACFF5,var(--ge-dark-color, #121212));" parent="1" vertex="1">
          <mxGeometry x="200" y="117" width="125" height="80" as="geometry" />
        </mxCell>
        <mxCell id="tCxOhf9ivpcR8k-8vdyb-6" value="Podaj dane personalne pracownika" style="ellipse;whiteSpace=wrap;html=1;fillColor=light-dark(#7ACFF5,var(--ge-dark-color, #121212));" parent="1" vertex="1">
          <mxGeometry x="300" y="220" width="125" height="80" as="geometry" />
        </mxCell>
        <mxCell id="tCxOhf9ivpcR8k-8vdyb-7" value="Stwórz wniosek o dodanie nowego pracownika" style="ellipse;whiteSpace=wrap;html=1;fillColor=light-dark(#7ACFF5,var(--ge-dark-color, #121212));" parent="1" vertex="1">
          <mxGeometry x="137.5" y="310" width="125" height="80" as="geometry" />
        </mxCell>
        <mxCell id="tCxOhf9ivpcR8k-8vdyb-8" value="Stwórz wniosek o edycję danych pracownika" style="ellipse;whiteSpace=wrap;html=1;fillColor=light-dark(#7ACFF5,var(--ge-dark-color, #121212));" parent="1" vertex="1">
          <mxGeometry x="137.5" y="700" width="125" height="80" as="geometry" />
        </mxCell>
        <mxCell id="tCxOhf9ivpcR8k-8vdyb-15" value="" style="endArrow=none;html=1;rounded=0;entryX=0.5;entryY=0.5;entryDx=0;entryDy=0;entryPerimeter=0;exitX=0;exitY=0.5;exitDx=0;exitDy=0;" parent="1" source="tCxOhf9ivpcR8k-8vdyb-7" target="4cYH0kskli7POFGjwZM7-33" edge="1">
          <mxGeometry width="50" height="50" relative="1" as="geometry">
            <mxPoint x="375" y="440" as="sourcePoint" />
            <mxPoint x="35" y="440" as="targetPoint" />
          </mxGeometry>
        </mxCell>
        <mxCell id="tCxOhf9ivpcR8k-8vdyb-16" value="" style="endArrow=none;html=1;rounded=0;entryX=0.5;entryY=0.5;entryDx=0;entryDy=0;entryPerimeter=0;exitX=0;exitY=0;exitDx=0;exitDy=0;" parent="1" source="tCxOhf9ivpcR8k-8vdyb-8" target="4cYH0kskli7POFGjwZM7-33" edge="1">
          <mxGeometry width="50" height="50" relative="1" as="geometry">
            <mxPoint x="160" y="440" as="sourcePoint" />
            <mxPoint x="35" y="440" as="targetPoint" />
          </mxGeometry>
        </mxCell>
        <mxCell id="tCxOhf9ivpcR8k-8vdyb-17" value="Wyświetlanie struktury pracowniczej firmy" style="ellipse;whiteSpace=wrap;html=1;fillColor=light-dark(#7ACFF5,var(--ge-dark-color, #121212));" parent="1" vertex="1">
          <mxGeometry x="340" y="390" width="125" height="80" as="geometry" />
        </mxCell>
        <mxCell id="tCxOhf9ivpcR8k-8vdyb-18" value="" style="endArrow=none;html=1;rounded=0;entryX=0.5;entryY=0.5;entryDx=0;entryDy=0;entryPerimeter=0;exitX=0;exitY=0.5;exitDx=0;exitDy=0;" parent="1" source="tCxOhf9ivpcR8k-8vdyb-17" target="4cYH0kskli7POFGjwZM7-33" edge="1">
          <mxGeometry width="50" height="50" relative="1" as="geometry">
            <mxPoint x="155" y="440" as="sourcePoint" />
            <mxPoint x="35" y="440" as="targetPoint" />
          </mxGeometry>
        </mxCell>
        <mxCell id="tCxOhf9ivpcR8k-8vdyb-19" value="" style="endArrow=none;html=1;rounded=0;entryX=1;entryY=0.5;entryDx=0;entryDy=0;exitX=0.5;exitY=0.5;exitDx=0;exitDy=0;exitPerimeter=0;" parent="1" source="4cYH0kskli7POFGjwZM7-2" target="tCxOhf9ivpcR8k-8vdyb-17" edge="1">
          <mxGeometry width="50" height="50" relative="1" as="geometry">
            <mxPoint x="740" y="429.58" as="sourcePoint" />
            <mxPoint x="445" y="429.58" as="targetPoint" />
          </mxGeometry>
        </mxCell>
        <mxCell id="tCxOhf9ivpcR8k-8vdyb-28" value="" style="endArrow=none;html=1;rounded=0;entryX=1;entryY=0.5;entryDx=0;entryDy=0;exitX=0.5;exitY=0.5;exitDx=0;exitDy=0;exitPerimeter=0;" parent="1" source="4cYH0kskli7POFGjwZM7-2" target="4cYH0kskli7POFGjwZM7-50" edge="1">
          <mxGeometry width="50" height="50" relative="1" as="geometry">
            <mxPoint x="825" y="440" as="sourcePoint" />
            <mxPoint x="498" y="440" as="targetPoint" />
          </mxGeometry>
        </mxCell>
        <mxCell id="tCxOhf9ivpcR8k-8vdyb-34" value="" style="endArrow=none;html=1;rounded=0;entryX=1;entryY=0;entryDx=0;entryDy=0;exitX=0.5;exitY=0.5;exitDx=0;exitDy=0;exitPerimeter=0;" parent="1" source="4cYH0kskli7POFGjwZM7-2" target="tCxOhf9ivpcR8k-8vdyb-1" edge="1">
          <mxGeometry width="50" height="50" relative="1" as="geometry">
            <mxPoint x="825" y="440" as="sourcePoint" />
            <mxPoint x="498" y="440" as="targetPoint" />
          </mxGeometry>
        </mxCell>
        <mxCell id="tCxOhf9ivpcR8k-8vdyb-36" value="Wpisz zmienione dane" style="ellipse;whiteSpace=wrap;html=1;fillColor=light-dark(#7ACFF5,var(--ge-dark-color, #121212));" parent="1" vertex="1">
          <mxGeometry x="137.5" y="820" width="125" height="80" as="geometry" />
        </mxCell>
        <mxCell id="tCxOhf9ivpcR8k-8vdyb-37" value="Zaimplementuj zmianę danych w koncie pracownika" style="ellipse;whiteSpace=wrap;html=1;fillColor=light-dark(#7ACFF5,var(--ge-dark-color, #121212));" parent="1" vertex="1">
          <mxGeometry x="535" y="820" width="120" height="80" as="geometry" />
        </mxCell>
        <mxCell id="tCxOhf9ivpcR8k-8vdyb-44" value="Stwórz wniosek o usunięcie pracownika" style="ellipse;whiteSpace=wrap;html=1;fillColor=light-dark(#7ACFF5,var(--ge-dark-color, #121212));" parent="1" vertex="1">
          <mxGeometry x="137.5" y="470" width="125" height="80" as="geometry" />
        </mxCell>
        <mxCell id="tCxOhf9ivpcR8k-8vdyb-45" value="Zatwierdź wniosek o usunięcie pracownika" style="ellipse;whiteSpace=wrap;html=1;fillColor=light-dark(#7ACFF5,var(--ge-dark-color, #121212));" parent="1" vertex="1">
          <mxGeometry x="527.5" y="470" width="125" height="80" as="geometry" />
        </mxCell>
        <mxCell id="tCxOhf9ivpcR8k-8vdyb-46" value="" style="endArrow=none;html=1;rounded=0;entryX=1;entryY=0.5;entryDx=0;entryDy=0;exitX=0.5;exitY=0.5;exitDx=0;exitDy=0;exitPerimeter=0;" parent="1" source="4cYH0kskli7POFGjwZM7-2" target="tCxOhf9ivpcR8k-8vdyb-45" edge="1">
          <mxGeometry width="50" height="50" relative="1" as="geometry">
            <mxPoint x="825" y="440" as="sourcePoint" />
            <mxPoint x="622" y="622" as="targetPoint" />
          </mxGeometry>
        </mxCell>
        <mxCell id="tCxOhf9ivpcR8k-8vdyb-47" value="" style="endArrow=none;html=1;rounded=0;entryX=0.5;entryY=0.5;entryDx=0;entryDy=0;entryPerimeter=0;exitX=0;exitY=0.5;exitDx=0;exitDy=0;" parent="1" source="tCxOhf9ivpcR8k-8vdyb-44" target="4cYH0kskli7POFGjwZM7-33" edge="1">
          <mxGeometry width="50" height="50" relative="1" as="geometry">
            <mxPoint x="166" y="622" as="sourcePoint" />
            <mxPoint x="35" y="440" as="targetPoint" />
          </mxGeometry>
        </mxCell>
        <mxCell id="tCxOhf9ivpcR8k-8vdyb-51" value="Dodaj pracownika" style="ellipse;whiteSpace=wrap;html=1;fillColor=light-dark(#7ACFF5,var(--ge-dark-color, #121212));" parent="1" vertex="1">
          <mxGeometry x="532.5" y="170" width="120" height="80" as="geometry" />
        </mxCell>
        <mxCell id="tCxOhf9ivpcR8k-8vdyb-60" value="Usuń pracownika z struktury pracowniczej firmy" style="ellipse;whiteSpace=wrap;html=1;fillColor=light-dark(#7ACFF5,var(--ge-dark-color, #121212));" parent="1" vertex="1">
          <mxGeometry x="530" y="590" width="122.5" height="80" as="geometry" />
        </mxCell>
        <mxCell id="5L3VKpMt04bjp-9_7mus-1" value="&amp;lt;&amp;lt;Include&amp;gt;&amp;gt;" style="html=1;verticalAlign=bottom;labelBackgroundColor=none;endArrow=open;endFill=0;dashed=1;rounded=0;exitX=0.51;exitY=0.996;exitDx=0;exitDy=0;entryX=0.5;entryY=0;entryDx=0;entryDy=0;exitPerimeter=0;" edge="1" parent="1" source="tCxOhf9ivpcR8k-8vdyb-45" target="tCxOhf9ivpcR8k-8vdyb-60">
          <mxGeometry x="0.0615" y="39" width="160" relative="1" as="geometry">
            <mxPoint x="310" y="600" as="sourcePoint" />
            <mxPoint x="470" y="600" as="targetPoint" />
            <mxPoint as="offset" />
          </mxGeometry>
        </mxCell>
        <mxCell id="5L3VKpMt04bjp-9_7mus-3" value="&amp;lt;&amp;lt;Include&amp;gt;&amp;gt;" style="html=1;verticalAlign=bottom;labelBackgroundColor=none;endArrow=open;endFill=0;dashed=1;rounded=0;exitX=0;exitY=0.5;exitDx=0;exitDy=0;entryX=1;entryY=0.5;entryDx=0;entryDy=0;" edge="1" parent="1" source="tCxOhf9ivpcR8k-8vdyb-45" target="tCxOhf9ivpcR8k-8vdyb-44">
          <mxGeometry x="-0.0377" width="160" relative="1" as="geometry">
            <mxPoint x="390" y="550" as="sourcePoint" />
            <mxPoint x="390" y="590" as="targetPoint" />
            <mxPoint as="offset" />
          </mxGeometry>
        </mxCell>
        <mxCell id="5L3VKpMt04bjp-9_7mus-4" value="&amp;lt;&amp;lt;Include&amp;gt;&amp;gt;" style="html=1;verticalAlign=bottom;labelBackgroundColor=none;endArrow=open;endFill=0;dashed=1;rounded=0;exitX=0;exitY=0.5;exitDx=0;exitDy=0;entryX=1;entryY=0.5;entryDx=0;entryDy=0;" edge="1" parent="1" source="tCxOhf9ivpcR8k-8vdyb-1" target="tCxOhf9ivpcR8k-8vdyb-8">
          <mxGeometry x="-0.0377" width="160" relative="1" as="geometry">
            <mxPoint x="527.5" y="690" as="sourcePoint" />
            <mxPoint x="262.5" y="690" as="targetPoint" />
            <mxPoint as="offset" />
          </mxGeometry>
        </mxCell>
        <mxCell id="5L3VKpMt04bjp-9_7mus-5" value="&amp;lt;&amp;lt;Include&amp;gt;&amp;gt;" style="html=1;verticalAlign=bottom;labelBackgroundColor=none;endArrow=open;endFill=0;dashed=1;rounded=0;exitX=0;exitY=0.5;exitDx=0;exitDy=0;entryX=1;entryY=0.5;entryDx=0;entryDy=0;" edge="1" parent="1" source="4cYH0kskli7POFGjwZM7-50" target="tCxOhf9ivpcR8k-8vdyb-7">
          <mxGeometry x="-0.0377" width="160" relative="1" as="geometry">
            <mxPoint x="537.5" y="380" as="sourcePoint" />
            <mxPoint x="267.5" y="380" as="targetPoint" />
            <mxPoint as="offset" />
          </mxGeometry>
        </mxCell>
        <mxCell id="5L3VKpMt04bjp-9_7mus-6" value="&amp;lt;&amp;lt;Include&amp;gt;&amp;gt;" style="html=1;verticalAlign=bottom;labelBackgroundColor=none;endArrow=open;endFill=0;dashed=1;rounded=0;entryX=0;entryY=1;entryDx=0;entryDy=0;exitX=1;exitY=0;exitDx=0;exitDy=0;" edge="1" parent="1" source="tCxOhf9ivpcR8k-8vdyb-7" target="tCxOhf9ivpcR8k-8vdyb-6">
          <mxGeometry x="-0.2019" y="9" width="160" relative="1" as="geometry">
            <mxPoint x="536" y="380" as="sourcePoint" />
            <mxPoint x="269" y="380" as="targetPoint" />
            <mxPoint as="offset" />
          </mxGeometry>
        </mxCell>
        <mxCell id="5L3VKpMt04bjp-9_7mus-7" value="&amp;lt;&amp;lt;Include&amp;gt;&amp;gt;" style="html=1;verticalAlign=bottom;labelBackgroundColor=none;endArrow=open;endFill=0;dashed=1;rounded=0;entryX=0.364;entryY=0.972;entryDx=0;entryDy=0;exitX=0.604;exitY=0.004;exitDx=0;exitDy=0;entryPerimeter=0;exitPerimeter=0;" edge="1" parent="1" source="tCxOhf9ivpcR8k-8vdyb-7" target="tCxOhf9ivpcR8k-8vdyb-5">
          <mxGeometry x="0.1907" y="-31" width="160" relative="1" as="geometry">
            <mxPoint x="188.5" y="277" as="sourcePoint" />
            <mxPoint x="262.5" y="243" as="targetPoint" />
            <mxPoint as="offset" />
          </mxGeometry>
        </mxCell>
        <mxCell id="5L3VKpMt04bjp-9_7mus-8" value="&amp;lt;&amp;lt;include&amp;gt;&amp;gt;" style="html=1;verticalAlign=bottom;labelBackgroundColor=none;endArrow=open;endFill=0;dashed=1;rounded=0;entryX=0.5;entryY=1;entryDx=0;entryDy=0;exitX=0.287;exitY=0.067;exitDx=0;exitDy=0;exitPerimeter=0;" edge="1" parent="1" source="tCxOhf9ivpcR8k-8vdyb-7" target="tCxOhf9ivpcR8k-8vdyb-4">
          <mxGeometry x="-0.0189" y="-28" width="160" relative="1" as="geometry">
            <mxPoint x="251" y="414" as="sourcePoint" />
            <mxPoint x="325" y="380" as="targetPoint" />
            <mxPoint as="offset" />
          </mxGeometry>
        </mxCell>
        <mxCell id="5L3VKpMt04bjp-9_7mus-9" value="&amp;lt;&amp;lt;Include&amp;gt;&amp;gt;" style="html=1;verticalAlign=bottom;labelBackgroundColor=none;endArrow=open;endFill=0;dashed=1;rounded=0;entryX=0.5;entryY=1;entryDx=0;entryDy=0;exitX=0.5;exitY=0;exitDx=0;exitDy=0;" edge="1" parent="1" source="4cYH0kskli7POFGjwZM7-50" target="tCxOhf9ivpcR8k-8vdyb-51">
          <mxGeometry x="-0.3333" y="-37" width="160" relative="1" as="geometry">
            <mxPoint x="456" y="300" as="sourcePoint" />
            <mxPoint x="530" y="266" as="targetPoint" />
            <mxPoint as="offset" />
          </mxGeometry>
        </mxCell>
        <mxCell id="5L3VKpMt04bjp-9_7mus-10" value="&amp;lt;&amp;lt;Include&amp;gt;&amp;gt;" style="html=1;verticalAlign=bottom;labelBackgroundColor=none;endArrow=open;endFill=0;dashed=1;rounded=0;entryX=0;entryY=1;entryDx=0;entryDy=0;exitX=1;exitY=0;exitDx=0;exitDy=0;" edge="1" parent="1" source="tCxOhf9ivpcR8k-8vdyb-51" target="tCxOhf9ivpcR8k-8vdyb-2">
          <mxGeometry x="-0.0725" y="-39" width="160" relative="1" as="geometry">
            <mxPoint x="692.08" y="280" as="sourcePoint" />
            <mxPoint x="692.08" y="220" as="targetPoint" />
            <mxPoint as="offset" />
          </mxGeometry>
        </mxCell>
        <mxCell id="5L3VKpMt04bjp-9_7mus-11" value="&amp;lt;&amp;lt;Include&amp;gt;&amp;gt;" style="html=1;verticalAlign=bottom;labelBackgroundColor=none;endArrow=open;endFill=0;dashed=1;rounded=0;entryX=1;entryY=1;entryDx=0;entryDy=0;exitX=0;exitY=0;exitDx=0;exitDy=0;" edge="1" parent="1" source="tCxOhf9ivpcR8k-8vdyb-51" target="tCxOhf9ivpcR8k-8vdyb-3">
          <mxGeometry x="-0.6308" y="-21" width="160" relative="1" as="geometry">
            <mxPoint x="480" y="257" as="sourcePoint" />
            <mxPoint x="480" y="197" as="targetPoint" />
            <mxPoint as="offset" />
          </mxGeometry>
        </mxCell>
        <mxCell id="5L3VKpMt04bjp-9_7mus-12" value="&amp;lt;&amp;lt;Include&amp;gt;&amp;gt;" style="html=1;verticalAlign=bottom;labelBackgroundColor=none;endArrow=open;endFill=0;dashed=1;rounded=0;entryX=0.5;entryY=0;entryDx=0;entryDy=0;exitX=0.5;exitY=1;exitDx=0;exitDy=0;" edge="1" parent="1" source="tCxOhf9ivpcR8k-8vdyb-8" target="tCxOhf9ivpcR8k-8vdyb-36">
          <mxGeometry y="30" width="160" relative="1" as="geometry">
            <mxPoint x="362.08000000000004" y="870" as="sourcePoint" />
            <mxPoint x="362.08000000000004" y="810" as="targetPoint" />
            <mxPoint as="offset" />
          </mxGeometry>
        </mxCell>
        <mxCell id="5L3VKpMt04bjp-9_7mus-13" value="&amp;lt;&amp;lt;Include&amp;gt;&amp;gt;" style="html=1;verticalAlign=bottom;labelBackgroundColor=none;endArrow=open;endFill=0;dashed=1;rounded=0;entryX=0.5;entryY=0;entryDx=0;entryDy=0;exitX=0.5;exitY=1;exitDx=0;exitDy=0;" edge="1" parent="1" source="tCxOhf9ivpcR8k-8vdyb-1" target="tCxOhf9ivpcR8k-8vdyb-37">
          <mxGeometry y="30" width="160" relative="1" as="geometry">
            <mxPoint x="469.58" y="773" as="sourcePoint" />
            <mxPoint x="469.58" y="813" as="targetPoint" />
            <mxPoint as="offset" />
          </mxGeometry>
        </mxCell>
        <mxCell id="5L3VKpMt04bjp-9_7mus-14" value="Podaj ID pracownika" style="ellipse;whiteSpace=wrap;html=1;fillColor=light-dark(#7ACFF5,var(--ge-dark-color, #121212));" vertex="1" parent="1">
          <mxGeometry x="190" y="590" width="125" height="80" as="geometry" />
        </mxCell>
        <mxCell id="5L3VKpMt04bjp-9_7mus-15" value="&amp;lt;&amp;lt;Include&amp;gt;&amp;gt;" style="html=1;verticalAlign=bottom;labelBackgroundColor=none;endArrow=open;endFill=0;dashed=1;rounded=0;entryX=0.5;entryY=0;entryDx=0;entryDy=0;exitX=0.5;exitY=1;exitDx=0;exitDy=0;" edge="1" parent="1" source="tCxOhf9ivpcR8k-8vdyb-44" target="5L3VKpMt04bjp-9_7mus-14">
          <mxGeometry x="0.5725" y="14" width="160" relative="1" as="geometry">
            <mxPoint x="350" y="584" as="sourcePoint" />
            <mxPoint x="424" y="550" as="targetPoint" />
            <mxPoint as="offset" />
          </mxGeometry>
        </mxCell>
      </root>
    </mxGraphModel>
  </diagram>
</mxfile>
